<svg width="22" height="20" viewBox="0 0 22 20" fill="none" xmlns="http://www.w3.org/2000/svg">
<path d="M20.5652 0.0784912H1.43478C0.643261 0.0784912 0 0.721752 0 1.51327V18.4868C0 19.2783 0.643261 19.9215 1.43478 19.9215H20.5652C21.3567 19.9215 22 19.2783 22 18.4868V1.51327C22 0.721752 21.3567 0.0784912 20.5652 0.0784912ZM19.1304 17.052H2.86957V16.3274L5.94956 13.2474L7.38674 14.6822C7.9463 15.2441 8.855 15.2441 9.41457 14.6846L15.0843 9.0148L19.1304 13.0609V17.052ZM19.1304 9.00523L16.0983 5.97067C15.5363 5.4111 14.63 5.4111 14.068 5.97067L8.40065 11.6404L6.96348 10.2033C6.40391 9.64371 5.49522 9.64371 4.93565 10.2033L2.86957 12.2694V2.94806H19.1304V9.00523Z" fill="#639EFF"/>
</svg>
